<svg viewBox="0 0 474 474" xmlns="http://www.w3.org/2000/svg">
  <g fill="none" fill-rule="evenodd">
    <circle fill="#FFF" cx="237" cy="237" r="160"/>
    <path fill="#0A0A08" fill-rule="nonzero" d="M115.95 215.668v42.07l31.45-21.034"/>
    <path fill="#0A0A08" fill-rule="nonzero" d="M224.502 185.13v-58.628l-98.487 65.653 43.994 29.43"/>
    <path fill="#0A0A08" fill-rule="nonzero" d="M348.13 192.155l-98.487-65.653v58.628l54.497 36.455"/>
    <path fill="#0A0A08" fill-rule="nonzero" d="M126.015 281.252l98.487 65.653v-58.63L170.01 251.83"/>
    <path fill="#0A0A08" fill-rule="nonzero" d="M249.643 288.276v58.63l98.488-65.654-43.99-29.422"/>
    <path fill="#0A0A08" fill-rule="nonzero" d="M237.07 206.966l-44.456 29.737 44.457 29.738 44.46-29.737"/>
    <g fill-rule="nonzero" fill="#0A0A08">
      <path d="M383.33 281.268c0 .554-.038 1.1-.11 1.646-.028.177-.07.362-.1.54-.066.353-.128.707-.22 1.053-.054.208-.13.407-.197.608-.1.307-.2.616-.322.924-.084.206-.19.406-.28.606-.135.285-.274.56-.427.84-.113.19-.24.384-.36.576-.168.262-.34.516-.53.762-.138.192-.28.37-.433.546-.197.23-.405.46-.624.676-.166.17-.328.34-.5.493-.227.207-.47.407-.715.6-.185.146-.37.292-.566.43-.072.047-.137.108-.21.154l-133.688 89.128c-2.112 1.408-4.54 2.115-6.975 2.115-2.426 0-4.858-.707-6.97-2.115L96.41 291.724c-.07-.046-.136-.107-.205-.154-.197-.138-.385-.284-.57-.43-.246-.193-.485-.393-.712-.6-.173-.155-.338-.324-.504-.494-.22-.215-.423-.446-.628-.676-.146-.177-.292-.354-.43-.546-.185-.246-.362-.5-.528-.762-.127-.192-.246-.385-.36-.577-.155-.278-.293-.554-.428-.84-.096-.2-.193-.4-.28-.606-.124-.31-.228-.618-.324-.925-.07-.2-.138-.4-.196-.608-.093-.346-.154-.7-.22-1.054-.03-.177-.076-.362-.1-.54-.073-.545-.115-1.09-.115-1.645V192.14c0-.554.043-1.1.116-1.64.024-.183.07-.36.1-.545.066-.354.127-.708.22-1.054.058-.207.127-.407.196-.607.096-.308.2-.615.323-.916.088-.207.185-.415.28-.615.136-.285.274-.562.428-.83.115-.2.234-.393.36-.586.167-.26.344-.515.53-.762.137-.184.283-.37.43-.545.204-.232.407-.463.626-.68.165-.168.33-.337.503-.49.227-.21.466-.41.712-.602.185-.146.373-.292.57-.43.07-.047.134-.108.204-.154L230.1 92.556c4.224-2.816 9.72-2.816 13.946 0l133.687 89.128c.074.046.14.107.21.154.198.138.382.284.568.43.247.193.49.393.716.6.172.155.334.324.5.493.22.217.427.448.624.68.153.175.295.36.434.544.19.247.36.5.53.762.12.193.246.385.36.585.152.27.29.547.426.832.09.2.196.408.28.615.124.3.223.608.323.916.066.2.143.4.196.608.092.347.154.7.22 1.055.03.185.072.362.1.546.072.54.11 1.086.11 1.64v89.128zM237.07.155C106.435.155.526 106.06.526 236.705c0 130.644 105.91 236.544 236.546 236.544 130.646 0 236.55-105.9 236.55-236.546C473.62 106.06 367.716.154 237.07.154z"/>
      <path d="M358.194 257.74v-42.072l-31.445 21.035"/>
    </g>
  </g>
</svg>
