<svg width="64" height="64" viewBox="0 0 64 64" xmlns="http://www.w3.org/2000/svg">
  <g fill="none" fill-rule="evenodd">
    <path d="M0 20.997c0-4.417 3.51-8.71 7.848-9.591l48.304-9.812C60.486.714 64 3.578 64 8.01v47.98A8.004 8.004 0 0 1 55.991 64H8.01C3.586 64 0 60.414 0 56.003V20.997z" fill="#000"/>
    <path d="M14.205 41.802h4.075V35.32h-4.075v-2.547h7.085v9.03h4.283v2.547H14.205v-2.547zm3.519-12.179c0-.478.177-.887.533-1.227.355-.34.848-.51 1.481-.51.649 0 1.166.17 1.552.51.386.34.578.749.578 1.227 0 .494-.192.9-.578 1.216-.386.316-.903.474-1.552.474-.633 0-1.126-.158-1.481-.474-.356-.317-.533-.722-.533-1.216zm21.359 5.691h4.365V30.79h2.66v4.525h4.388v2.547h-4.388v4.57h-2.66v-4.57h-4.365zm-13.263 0h4.365V30.79h2.66v4.525h4.388v2.547h-4.388v4.57h-2.66v-4.57h-4.366z" fill="#FFF"/>
  </g>
</svg>
