<svg xmlns="http://www.w3.org/2000/svg" viewBox="0 0 420 280">
  <path d="M169.595 72.283l7.99 7.99-7.99 7.99-7.99-7.99z"/>
  <path d="M250.226 72.238l7.99 7.99-7.99 7.99-7.99-7.99z"/>
  <path d="M238.1 100.4l-20.2-20.2L238.1 60l-28.2-28.2L181.8 60l40.4 40.4-12.2 12.2-20.2-20.2-8 8 20.2 20.2-20.1 20 8 8 20.1-20 20.2 20.2 8-8-20.2-20.2 20.1-20.2zM197.8 60L210 47.8 222.1 60 210 72.2 197.8 60z"/>
  <g>
    <path d="M369.5 233.7c-7.3 0-12.8-5.9-12.8-13.4s5.5-13.4 12.8-13.4c3.6 0 6.7 1.4 8.9 3.7l6.3-6.3c-3.9-3.6-9.2-5.8-15.2-5.8-12.6 0-22.1 9.5-22.1 21.8s9.5 21.8 22.1 21.8c6 0 11.3-2.2 15.2-5.8l-6.3-6.3c-2.3 2.3-5.4 3.7-8.9 3.7z"/>
    <path d="M88 199h13.3c5 0 9.8.7 13.1 2.8 3.1 1.9 5.1 5.1 5.1 9.9 0 5.4-3 9.9-8.6 11.7l11.9 17.9h-10.7l-10.7-16.7h-4.1v16.7H88V199zm13.9 18.6c2.5 0 4.4-.3 5.8-1 1.6-.8 2.4-2.2 2.4-4.3 0-2-.7-3.3-2.4-4.1-1.5-.8-3.7-1.1-6.9-1.1h-3.6v10.5h4.7z"/>
    <path d="M136.2 199h9.3v42.3h-9.3V199z"/>
    <path d="M162.4 199h11.9c7.5 0 13.4 1.2 17.8 4.3 5.2 3.6 8.1 9.6 8.1 16.8 0 6.7-2.5 12.3-7 16-4.3 3.5-10.4 5.2-19.3 5.2h-11.4V199zm11.9 34.1c6 0 9.9-1.1 12.5-3.3 2.5-2.2 4.1-5.5 4.1-9.8 0-4.4-1.8-8.2-4.9-10.4-3-2.1-7-2.6-11.7-2.6h-2.5v26h2.5z"/>
    <path d="M211.6 220.1c0-12.3 9.5-21.8 22.1-21.8s22.1 9.5 22.1 21.8-9.5 21.8-22.1 21.8-22.1-9.5-22.1-21.8zm34.8 0c0-7.5-5.5-13.4-12.8-13.4-7.3 0-12.8 5.9-12.8 13.4s5.5 13.4 12.8 13.4c7.3 0 12.8-5.9 12.8-13.4z"/>
    <path d="M284.5 224.2c-2.7-3.7-5.3-7.2-7.9-10.9l-.1.1c.1 4 .1 8.1.1 12.2v15.7h-8.9V199h8.8l12.5 17c2.7 3.7 5.3 7.2 7.9 10.9l.1-.1c-.1-4-.1-8.1-.1-12.2V199h8.9v42.3H297l-12.5-17.1z"/>
    <path d="M323.9 199h9.3v42.3h-9.3V199z"/>
    <path d="M37.2 213.3v-.1.1z"/>
    <path d="M57.7 217.6v7.7h5.5v7.5c-1.4.6-3.3.9-5.2.9-8.7 0-14-6.2-14-13.5 0-1.3.2-2.6.5-3.9 1.6-5.4 6.3-9.3 12.2-9.3 3.6 0 6.7 1.4 8.9 3.7l1.8-1.8 3.3-3.3 1.2-1.2c-.4-.4-.8-.7-1.2-1-3.8-3-8.6-4.8-14.1-4.8-10 0-18 6-20.9 14.6v.1c-.7 2.2-1.1 4.5-1.1 7 0 12.4 9.5 21.6 23.1 21.6 5.3 0 10.6-1.4 14.4-3.5v-20.7H57.7z"/>
  </g>
</svg>
