<?xml version="1.0" encoding="UTF-8" standalone="no"?>
<svg width="406px" height="128px" viewBox="0 0 406 128" version="1.1" xmlns="http://www.w3.org/2000/svg" xmlns:xlink="http://www.w3.org/1999/xlink">
    <!-- Generator: Sketch 42 (36781) - http://www.bohemiancoding.com/sketch -->
    <title>Slice 1</title>
    <desc>Created with Sketch.</desc>
    <defs></defs>
    <g id="Page-1" stroke="none" stroke-width="1" fill="none" fill-rule="evenodd">
        <path d="M208.428571,61.6 L208.428571,65.8857143 C208.428571,66.4571429 208.2,66.9714286 207.8,67.4285714 C207.4,67.8857143 206.885714,68.0571429 206.257143,68.0571429 L197,68.0571429 L197,77.3714286 C197,77.9428571 196.771429,78.4571429 196.371429,78.9142857 C195.971429,79.3714286 195.457143,79.5428571 194.828571,79.5428571 L190.542857,79.5428571 C189.971429,79.5428571 189.457143,79.3142857 189,78.9142857 C188.542857,78.5142857 188.371429,78 188.371429,77.3714286 L188.371429,68 L179.171429,68 C178.6,68 178.085714,67.7714286 177.628571,67.3714286 C177.171429,66.9714286 177,66.4571429 177,65.8285714 L177,61.5428571 C177,60.9714286 177.228571,60.4571429 177.628571,60 C178.028571,59.5428571 178.542857,59.3714286 179.171429,59.3714286 L188.485714,59.3714286 L188.485714,50.1714286 C188.485714,49.6 188.714286,49.0857143 189.114286,48.6285714 C189.514286,48.1714286 190.028571,48 190.657143,48 L194.942857,48 C195.514286,48 196.028571,48.2285714 196.485714,48.6285714 C196.942857,49.0285714 197.114286,49.5428571 197.114286,50.1714286 L197.114286,59.4857143 L206.428571,59.4857143 C207,59.4857143 207.514286,59.7142857 207.971429,60.1142857 C208.428571,60.5142857 208.428571,60.9714286 208.428571,61.6 Z" id="XMLID_4_" fill="#9B9B9B" fill-rule="nonzero"></path>
        <path d="M91.893617,81.5212766 C91.893617,94.9894291 87.6170642,105.936128 79.0638298,114.361702 C69.9999544,123.425578 57.4894414,127.957447 41.5319149,127.957447 C32.4042097,127.957447 23.75536,125.595769 15.5851064,120.87234 C9.32975598,117.297855 4.57448436,113.180874 1.31914894,108.521277 C0.680847864,104.62764 0.361702128,101.085122 0.361702128,97.893617 C0.361702128,87.48931 3.521245,79.5106662 9.84042553,73.9574468 C14.946834,69.4893392 21.2340052,67.2553191 28.7021277,67.2553191 C34.3830073,67.2553191 39.5531683,68.7553042 44.212766,71.7553191 C48.936194,74.9468242 52.4148827,79.3510359 54.6489362,84.9680851 C56.6914996,84.9680851 57.712766,83.9149038 57.712766,81.8085106 C57.712766,80.7233988 57.2500044,79.2872429 56.3244677,77.5 C55.3989317,75.7127571 54.0744769,73.9255408 52.3510638,72.1382979 C47.8191265,67.4787003 42.3617341,64.6063884 35.9787234,63.5212766 L35.9787234,8.37234043 C39.1702284,6.01062652 43.1914649,4.03192286 48.0425532,2.43617021 C52.8936415,0.840417566 58.414863,0.0425531915 64.606383,0.0425531915 C70.797903,0.0425531915 76.3829535,1.12764875 81.3617021,3.29787234 C88.3830141,6.48937763 91.893617,11.2765638 91.893617,17.6595745 L91.893617,81.5212766 Z" id="J" fill="#1A53CB" fill-rule="nonzero"></path>
        <g id="Group" transform="translate(278.000000, 0.000000)" fill-rule="nonzero">
            <path d="M82.982,7.919 C81.037,1.9315 74.606,-1.345 68.6195,0.601 C62.632,2.546 59.3555,8.977 61.3015,14.9635 L90.775,105.646 C92.799,111.2395 98.841,114.3825 104.641,112.7135 C110.691,110.972 114.3785,104.5465 112.448,98.605 L82.982,7.919" id="Shape" fill="#DFA22F"></path>
            <path d="M37.313,22.758 C35.367,16.771 28.9365,13.4945 22.95,15.4395 C16.962,17.385 13.685,23.8155 15.6315,29.803 L45.1055,120.486 C47.129,126.079 53.1715,129.2225 58.9715,127.552 C65.021,125.8115 68.7085,119.386 66.778,113.4435 L37.313,22.758" id="Shape" fill="#3CB187"></path>
            <path d="M120.081,83.0225 C126.0685,81.0775 129.344,74.6475 127.399,68.6595 C125.454,62.673 119.023,59.396 113.0365,61.3415 L22.354,90.816 C16.7605,92.839 13.6175,98.881 15.2865,104.681 C17.028,110.7305 23.4535,114.4185 29.395,112.488 L120.081,83.023" id="Shape" fill="#CE1E5B"></path>
            <polyline id="Shape" fill="#392538" points="41.254 108.635 62.9275 101.593 55.8845 79.917 34.2095 86.962 41.254 108.6355"></polyline>
            <path d="M86.9235,93.7955 C95.1175,91.134 102.7335,88.659 108.5975,86.7535 L101.5535,65.0735 L79.8785,72.1185 L86.9235,93.7955" id="Shape" fill="#BB242A"></path>
            <path d="M105.242,37.353 C111.229,35.408 114.5055,28.9775 112.5605,22.9895 C110.6155,17.003 104.1845,13.7265 98.197,15.6715 L7.514,45.1465 C1.921,47.1685 -1.2225,53.211 0.448,59.011 C2.1885,65.06 8.614,68.748 14.5565,66.8175 L105.242,37.3525" id="Shape" fill="#72C5CD"></path>
            <path d="M26.411,62.9665 C32.3135,61.0485 39.9235,58.5755 48.088,55.9235 C45.4265,47.7285 42.9515,40.1125 41.046,34.2475 L19.366,41.2935 L26.411,62.9665" id="Shape" fill="#248C73"></path>
            <path d="M72.08,48.128 L93.758,41.084 C91.410135,33.8572353 89.0619683,26.6305687 86.7135,19.404 L65.035,26.45 L72.08,48.128" id="Shape" fill="#62803A"></path>
        </g>
    </g>
</svg>