<svg width="360" height="233" viewBox="0 0 360 233" xmlns="http://www.w3.org/2000/svg" xmlns:xlink="http://www.w3.org/1999/xlink">
  <defs>
    <path d="M26.51 1.697c11.174 0 25.225 10.504 26.065 21.09.3 3.81-3.13 6.953-6.95 6.953H7.394c-3.82 0-7.04-3.128-6.952-6.953.225-9.85 14.89-21.09 26.066-21.09z" id="a"/>
  </defs>
  <g fill="none" fill-rule="evenodd">
    <path d="M198.804 84.83l-2.782 18.76c-.56 3.782-3.13 6.952-6.954 6.952h-18.76c-3.82 0-6.392-3.17-6.952-6.95l-2.782-18.76h38.23z" fill="#843409"/>
    <path d="M179.69 56.788c11.176 0 25.227 10.504 26.067 21.09.3 3.81-3.13 6.953-6.95 6.953h-38.23c-3.82 0-7.04-3.127-6.952-6.952.224-9.85 14.888-21.09 26.066-21.09z" fill="#B3741D"/>
    <g transform="translate(153.182 55.09)">
      <mask id="b" fill="#fff">
        <use xlink:href="#a"/>
      </mask>
      <path d="M20.13 1.697c8.44 0 19.05 7.934 19.684 15.93.23 2.876-2.365 5.25-5.252 5.25H5.692c-2.886 0-5.317-2.366-5.25-5.25.17-7.44 11.244-15.93 19.687-15.93z" fill="#DC9A49" mask="url(#b)"/>
    </g>
    <path d="M189.07 112.76h-18.76c-4.61 0-8.37-3.636-9.143-8.844l-2.78-18.76c-.18-1.21.657-2.336 1.866-2.515 1.21-.176 2.337.657 2.516 1.866l2.78 18.762c.374 2.52 1.99 5.06 4.76 5.06h18.76c2.77 0 4.388-2.54 4.76-5.06l2.78-18.762c.18-1.21 1.31-2.044 2.517-1.865 1.21.182 2.048 1.308 1.867 2.516l-2.78 18.76c-.772 5.208-4.53 8.845-9.143 8.845z" fill="#000"/>
    <path d="M198.804 87.048h-38.228c-2.455 0-4.852-1.01-6.58-2.77-1.713-1.744-2.632-4.033-2.588-6.44.026-1.505.325-3.06.886-4.627.412-1.15 1.682-1.75 2.832-1.337 1.152.413 1.752 1.683 1.337 2.832-.4 1.11-.608 2.19-.628 3.212-.022 1.21.447 2.365 1.32 3.255.9.917 2.145 1.443 3.417 1.443H198.8c1.36 0 2.727-.6 3.656-1.604.785-.85 1.172-1.9 1.09-2.958-.575-7.213-7.99-15.072-16.882-17.886-1.167-.37-1.813-1.615-1.444-2.78.368-1.167 1.614-1.813 2.78-1.444 10.666 3.373 19.247 12.73 19.963 21.76.183 2.305-.618 4.548-2.25 6.318-1.776 1.924-4.296 3.028-6.91 3.028zM156.89 71.55c-.433 0-.872-.128-1.256-.394-1.008-.694-1.26-2.075-.563-3.08.752-1.09 1.278-1.668 2.135-2.593.834-.897 2.234-.95 3.133-.118.897.83.95 2.234.118 3.133-.783.845-1.154 1.253-1.737 2.095-.435.624-1.127.958-1.83.958zm5.593-5.683c-.66 0-1.31-.292-1.748-.853-.752-.965-.58-2.357.382-3.11 2.99-2.334 6.404-4.232 9.87-5.49 1.15-.418 2.42.176 2.84 1.326.416 1.15-.18 2.42-1.327 2.838-3.035 1.1-6.027 2.767-8.653 4.818-.406.316-.888.47-1.364.47z" fill="#000"/>
    <path d="M179.69 112.02c-.815 0-1.476-.66-1.476-1.476v-16.33c0-.817.66-1.478 1.477-1.478.817 0 1.476.66 1.476 1.477v16.33c0 .817-.66 1.478-1.475 1.478z" fill="#000"/>
    <path d="M185.364 112.02c-.814 0-1.477-.66-1.477-1.476v-16.33c0-.817.66-1.478 1.477-1.478.816 0 1.477.66 1.477 1.477v16.33c.003.817-.66 1.478-1.476 1.478z" fill="#000"/>
    <path d="M191.117 112.02c-.816 0-1.477-.66-1.477-1.476v-16.33c0-.817.66-1.478 1.477-1.478.814 0 1.477.66 1.477 1.477v16.33c0 .817-.66 1.478-1.477 1.478z" fill="#000"/>
    <path d="M168.136 112.02c-.816 0-1.477-.66-1.477-1.476V99.487c0-.816.66-1.48 1.476-1.48s1.477.664 1.477 1.48v11.057c0 .816-.663 1.477-1.477 1.477z" fill="#000"/>
    <path d="M173.887 112.02c-.814 0-1.475-.656-1.477-1.47l-.043-9.292c-.003-.816.654-1.48 1.47-1.483h.004c.817 0 1.476.656 1.48 1.47l.042 9.292c.005.816-.654 1.482-1.47 1.484h-.005zm0-13.705c-.816 0-1.477-.66-1.477-1.475v-2.627c0-.816.66-1.477 1.477-1.477.816 0 1.475.66 1.475 1.477v2.627c0 .814-.66 1.475-1.475 1.475z" fill="#000"/>
    <g transform="translate(170.636 48.545)">
      <ellipse fill="#ED1941" cx="9.055" cy="8.243" rx="6.991" ry="6.991"/>
      <ellipse fill="#EF3A57" cx="6.971" cy="6.953" rx="3.504" ry="3.504"/>
    </g>
    <path d="M179.69 65.256c-4.668 0-8.467-3.8-8.467-8.468 0-4.67 3.8-8.467 8.468-8.467 4.67 0 8.466 3.8 8.466 8.468 0 4.67-3.796 8.468-8.465 8.468zm0-13.98c-3.04 0-5.513 2.473-5.513 5.515 0 3.04 2.472 5.514 5.514 5.514 3.04 0 5.512-2.474 5.512-5.513 0-3.04-2.472-5.513-5.51-5.513z" fill="#000"/>
    <path d="M180.01 55.178c-.217 0-.435-.046-.642-.146-.735-.356-1.043-1.24-.685-1.972l4.108-8.488c.357-.733 1.238-1.043 1.974-.685.735.356 1.04 1.24.687 1.973l-4.107 8.49c-.258.52-.786.828-1.334.828z" fill="#000"/>
    <path d="M69.08 145.984h6.864l8.352 15.024 8.16-15.024h6.912L100.856 178h-7.248l-.912-20.928-6.624 12.48h-3.744l-7.008-12.336L74.504 178h-6.912l1.488-32.016zm46.656 0h8.016L135.464 178h-7.92l-2.448-7.344h-11.28L111.368 178h-7.584l11.952-32.016zm7.632 19.056l-3.888-12.096-3.984 12.096h7.872zm15.6-19.056h7.248v12.768l10.704-12.768h8.4l-10.992 12.48L166.808 178h-8.784l-8.544-13.968-3.264 3.648V178h-7.248v-32.016zm31.392 0h21.888v6.336h-14.64v6.24h11.376v6.144h-11.376v6.912h15.696V178H170.36v-32.016zm27.84 0h11.904c1.856 0 3.488.264 4.896.792s2.584 1.248 3.528 2.16c.944.912 1.648 1.976 2.112 3.192.464 1.216.696 2.512.696 3.888 0 2.08-.456 3.896-1.368 5.448-.912 1.552-2.2 2.792-3.864 3.72L223.208 178h-7.968l-5.952-11.76h-4.032V178H198.2v-32.016zm11.52 14.448c1.344 0 2.4-.4 3.168-1.2.768-.8 1.152-1.808 1.152-3.024 0-1.312-.384-2.352-1.152-3.12-.768-.768-1.824-1.152-3.168-1.152h-4.464v8.496h4.464zM227.872 178v-32.016h4.547v14.555l13.405-14.556h5.274l-11.907 13.055L252.528 178h-5.507l-10.945-15.703-3.656 3.937V178h-4.548zm28.922 0v-32.016h4.594V178h-4.594zm9.375-27.984v-4.032h27.515v4.032h-11.438V178h-4.594v-27.984H266.17z" fill="#000"/>
  </g>
</svg>
