<svg width="346" height="299" viewBox="0 0 346 299" xmlns="http://www.w3.org/2000/svg">
  <g fill="none" fill-rule="evenodd">
    <path stroke="#1050ff" stroke-width="2" fill="#fff" fill-rule="nonzero" stroke-linejoin="round" d="M108 168H94l-5-16h24zM252 168h-18l-3-24h24z"/>
    <path fill="#fff" fill-rule="nonzero" d="M109 152H93v-21l8-6 8 6zM183 168l-4-11h-14l-4 11zM197 89h23v68h-96V89h25"/>
    <path fill="#fff" fill-rule="nonzero" d="M167 100l-5-42 10-23 10 23-5 42z"/>
    <path fill="#ccefff" fill-rule="nonzero" d="M101 125l8 6v21h-8zM180.8 162l-1.8-5h-14l-1.8 5zM172 35l10 23-5 42h-5zM220 89v55h-96z"/>
    <path stroke="#1050ff" stroke-width="2" stroke-linecap="round" stroke-linejoin="round" d="M236 139l2-2-4-4 2-2M243 139l2-2-4-4 2-2M250 139l2-2-4-4 2-2"/>
    <path stroke="#1050ff" stroke-width="2" stroke-linejoin="round" d="M175 152l-3 2-3-2v-3l3-2 3 2z"/>
    <path stroke="#1050ff" stroke-width="2" stroke-linecap="round" stroke-linejoin="round" d="M183 168l-4-11h-14l-4 11zM109 152H93v-21l8-6 8 6zM93 136h-3M93 131l-2-1M93 142h-3M93 148h-3M109 136h3M109 142h3M109 148h3M97 128l-2-2M109 131l2-1M105 128l2-2M90.3 156h21.5"/>
    <path stroke="#1050ff" stroke-width="2" stroke-linecap="round" stroke-linejoin="round" d="M97 148l2-3-2-3 2-3-2-3 2-3M103 148l2-3-2-3 2-3-2-3 2-3"/>
    <g stroke="#1050ff" stroke-width="2" stroke-linecap="round" stroke-linejoin="round">
      <path d="M87 168h174M266 168h3M78 168h3"/>
    </g>
    <path stroke="#1050ff" stroke-width="2" fill="#fff" fill-rule="nonzero" stroke-linejoin="round" d="M176 63.5l-4 2.5-4-2.5v-5l4-2.5 4 2.5z"/>
    <path stroke="#1050ff" stroke-width="2" stroke-linecap="round" stroke-linejoin="round" d="M167 100l-5-42 10-23 10 23-5 42z"/>
    <path stroke="#1050ff" stroke-width="2" fill="#fff" fill-rule="nonzero" stroke-linecap="round" stroke-linejoin="round" d="M161 110l-5 6-5-6 5-22zM177 110l-5 6-5-6 5-22zM193 110l-5 6-5-6 5-22z"/>
    <path d="M157.9 96.3l7-14.1M160.1 105.9l6.9-5.9M186.1 96.3l-7-14.1M183.9 105.9L177 100M172 35v-5M151 110h10M167 110h10M183 110h10" stroke="#1050ff" stroke-width="2" stroke-linecap="round" stroke-linejoin="round"/>
    <path stroke="#1050ff" stroke-width="2" fill="#ccefff" fill-rule="nonzero" stroke-linejoin="round" d="M243 161l6-6-3-5-3 3-3-3-3 5z"/>
    <path stroke="#1050ff" stroke-width="2" stroke-linecap="round" stroke-linejoin="round" d="M254.3 150h7.7l-5 12h-4.2"/>
    <g stroke="#1050ff" stroke-width="2" stroke-linecap="round" stroke-linejoin="round">
      <path d="M172 121v6M172 131v2M176 119v6M176 129v2M168 119v6M168 129v2M172 137v1M176 135v1M168 135v1"/>
    </g>
    <g stroke="#1050ff" stroke-width="2" stroke-linecap="round" stroke-linejoin="round">
      <path d="M156 121v6M156 131v2M160 119v6M160 129v2M152 119v6M152 129v2M156 137v1M160 135v1M152 135v1"/>
    </g>
    <g stroke="#1050ff" stroke-width="2" stroke-linecap="round" stroke-linejoin="round">
      <path d="M188 121v6M188 131v2M192 119v6M192 129v2M184 119v6M184 129v2M188 137v1M192 135v1M184 135v1"/>
    </g>
    <path stroke="#1050ff" stroke-width="2" stroke-linecap="round" stroke-linejoin="round" d="M197 89h23v68h-96V89h25M124 144h96"/>
    <path d="M40.73 254.116s4.732 3.12 9.516 3.12c3.536 0 10.504-2.08 10.504-9.88.052-7.228-5.304-9.62-10.348-11.648-4.264-1.716-8.58-3.484-8.58-8.788 0-6.136 5.616-7.8 8.424-7.8 4.16 0 8.372 2.808 8.372 2.808l.572-.884s-4.472-2.964-8.944-2.964c-3.172 0-9.464 1.872-9.464 8.84 0 12.428 18.98 7.124 18.928 20.436 0 6.968-6.292 8.84-9.464 8.84-4.472 0-8.944-2.964-8.944-2.964l-.572.884zm46.848 2.6h1.04V229.26h-1.04v24.18s-4.16 2.756-8.32 2.756c-2.132 0-3.692-.624-4.784-1.872-1.248-1.404-1.872-3.744-1.872-6.864v-18.2h-1.04v18.2c0 3.432.676 5.928 2.132 7.54 1.248 1.456 3.12 2.236 5.564 2.236 3.536 0 7.02-1.768 8.32-2.548v2.028zm13.88-27.456v2.08c1.3-.78 4.732-2.6 8.32-2.6 4.576 0 9.152 2.86 9.152 14.248s-4.576 14.248-9.152 14.248c-3.484 0-6.968-1.768-8.32-2.548v13.832h-1.04v-39.26h1.04zm0 3.276v20.904s4.16 2.756 8.32 2.756c4.056 0 8.112-2.652 8.112-13.208 0-10.556-4.056-13.208-8.112-13.208-4.16 0-8.32 2.756-8.32 2.756zm36.344-3.796h.936c2.704 0 4.836.988 6.344 2.964 1.768 2.288 2.704 5.876 2.756 10.764H129.69v.52c0 10.556 4.056 13.208 8.112 13.208 4.16 0 8.32-2.756 8.32-2.756l.624.832s-4.472 2.964-8.944 2.964c-4.576 0-9.152-2.86-9.152-14.248s4.576-14.248 9.152-14.248zm.936 1.04h-.936c-3.848 0-7.696 2.392-8.112 11.648h17.056c-.156-4.056-.988-7.124-2.496-9.1-1.3-1.664-3.172-2.548-5.512-2.548zm20.9 26.936v-23.66s4.16-2.756 8.32-2.756v-1.04c-3.588 0-7.02 1.82-8.32 2.6v-2.6h-1.04v27.456h1.04zm21.888-26.416h6.656v-1.04h-6.656v-3.484c0-4.888 1.716-8.736 6.656-8.736 1.716 0 3.432.468 4.888 1.04l.416-.936c-1.56-.624-3.432-1.144-5.304-1.144-5.72 0-7.696 4.316-7.696 9.776v3.484h-3.848v1.04h3.848v26.416h1.04V230.3zm23.812-1.56h1.404c4.576 0 9.152 2.86 9.152 14.248s-4.576 14.248-9.152 14.248h-1.404c-4.576 0-9.152-2.86-9.152-14.248s4.576-14.248 9.152-14.248zm1.404 1.04h-1.404c-4.056 0-8.112 2.652-8.112 13.208 0 10.556 4.056 13.208 8.112 13.208h1.404c4.056 0 8.112-2.652 8.112-13.208 0-10.556-4.056-13.208-8.112-13.208zm20.952 26.936v-23.66s4.16-2.756 8.32-2.756v-1.04c-3.588 0-7.02 1.82-8.32 2.6v-2.6h-1.04v27.456h1.04zm49.552 0h-1.04v-18.304c0-5.876-2.132-8.736-6.656-8.736-3.536 0-7.02 1.924-8.008 2.548.832 1.56 1.248 3.588 1.248 6.188v18.304h-1.04v-18.304c0-5.876-2.132-8.736-6.656-8.736-3.38 0-6.656 1.716-7.8 2.444v24.596h-1.04V229.26h1.04v1.664c1.612-.884 4.68-2.288 7.8-2.288 2.964 0 4.264 1.04 5.928 2.704 1.196-.728 4.836-2.704 8.528-2.704 5.148 0 7.696 3.328 7.696 9.776v18.304zm10.032-3.016s4.836 3.536 9.672 3.536c5.564 0 8.32-3.016 8.32-6.968 0-5.772-4.576-7.124-9.048-8.424-3.588-1.04-7.176-2.028-7.176-6.032 0-3.64 3.172-6.032 6.708-6.032 4.16 0 8.372 2.808 8.372 2.808l.572-.884s-4.472-2.964-8.944-2.964c-4.108 0-7.748 2.808-7.748 7.072 0 9.516 16.224 4.524 16.224 14.456 0 3.38-2.392 5.928-7.28 5.928-4.472 0-9.048-3.328-9.048-3.328l-.624.832z" fill="#4A4A4A"/>
  </g>
</svg>
