<?xml version="1.0" encoding="UTF-8" standalone="no"?>
<svg width="406px" height="128px" viewBox="0 0 406 128" version="1.1" xmlns="http://www.w3.org/2000/svg" xmlns:xlink="http://www.w3.org/1999/xlink">
    <!-- Generator: Sketch 42 (36781) - http://www.bohemiancoding.com/sketch -->
    <title>Slice 1</title>
    <desc>Created with Sketch.</desc>
    <defs></defs>
    <g id="Page-1" stroke="none" stroke-width="1" fill="none" fill-rule="evenodd">
        <path d="M208.428571,61.6 L208.428571,65.8857143 C208.428571,66.4571429 208.2,66.9714286 207.8,67.4285714 C207.4,67.8857143 206.885714,68.0571429 206.257143,68.0571429 L197,68.0571429 L197,77.3714286 C197,77.9428571 196.771429,78.4571429 196.371429,78.9142857 C195.971429,79.3714286 195.457143,79.5428571 194.828571,79.5428571 L190.542857,79.5428571 C189.971429,79.5428571 189.457143,79.3142857 189,78.9142857 C188.542857,78.5142857 188.371429,78 188.371429,77.3714286 L188.371429,68 L179.171429,68 C178.6,68 178.085714,67.7714286 177.628571,67.3714286 C177.171429,66.9714286 177,66.4571429 177,65.8285714 L177,61.5428571 C177,60.9714286 177.228571,60.4571429 177.628571,60 C178.028571,59.5428571 178.542857,59.3714286 179.171429,59.3714286 L188.485714,59.3714286 L188.485714,50.1714286 C188.485714,49.6 188.714286,49.0857143 189.114286,48.6285714 C189.514286,48.1714286 190.028571,48 190.657143,48 L194.942857,48 C195.514286,48 196.028571,48.2285714 196.485714,48.6285714 C196.942857,49.0285714 197.114286,49.5428571 197.114286,50.1714286 L197.114286,59.4857143 L206.428571,59.4857143 C207,59.4857143 207.514286,59.7142857 207.971429,60.1142857 C208.428571,60.5142857 208.428571,60.9714286 208.428571,61.6 Z" id="XMLID_4_" fill="#9B9B9B" fill-rule="nonzero"></path>
        <g id="webpack" transform="translate(273.000000, 0.000000)" fill-rule="nonzero">
            <polyline id="Shape" fill="#FFFFFF" points="56.5479452 0 113.09589 31.9853881 113.09589 95.9707763 56.5479452 127.956164 0 95.9707763 0 31.9853881"></polyline>
            <path d="M102.999087,93.7643836 L58.4182648,118.984475 L58.4182648,99.3461187 L86.1954338,84.0621005 L102.999087,93.7643836 Z M106.052968,91.0027397 L106.052968,38.2684932 L89.7461187,47.6931507 L89.7461187,81.5926941 L106.052968,91.0027397 L106.052968,91.0027397 Z M9.92146119,93.7643836 L54.5022831,118.984475 L54.5022831,99.3461187 L26.7105023,84.0621005 L9.92146119,93.7643836 Z M6.86757991,91.0027397 L6.86757991,38.2684932 L23.1744292,47.6931507 L23.1744292,81.5926941 L6.86757991,91.0027397 Z M8.78173516,34.8493151 L54.5022831,8.98630137 L54.5022831,27.9671233 L25.2054795,44.0840183 L24.9716895,44.2155251 L8.78173516,34.8493151 L8.78173516,34.8493151 Z M104.138813,34.8493151 L58.4182648,8.98630137 L58.4182648,27.9671233 L87.7150685,44.0694064 L87.9488584,44.2009132 L104.138813,34.8493151 Z" id="Shape" fill="#8ED6FB"></path>
            <path d="M54.5022831,94.8748858 L27.090411,79.7954338 L27.090411,49.943379 L54.5022831,65.7680365 L54.5022831,94.8748858 Z M58.4182648,94.8748858 L85.830137,79.8100457 L85.830137,49.943379 L58.4182648,65.7680365 L58.4182648,94.8748858 Z M28.9461187,46.4949772 L56.460274,31.3716895 L83.9744292,46.4949772 L56.460274,62.3780822 L28.9461187,46.4949772 L28.9461187,46.4949772 Z" id="Shape" fill="#1C78C0"></path>
        </g>
        <g id="vue" transform="translate(20.000000, 16.000000)" fill-rule="nonzero">
            <polygon id="Shape" fill="#41B883" points="88.9628959 0 111.20362 0 55.60181 95.9131222 0 0 42.5353846 0 55.60181 22.240724 68.3902262 0"></polygon>
            <polygon id="Shape" fill="#41B883" points="0 0 55.60181 95.9131222 111.20362 0 88.9628959 0 55.60181 57.5478733 21.9627149 0"></polygon>
            <polygon id="Shape" fill="#35495E" points="21.9627149 0 55.60181 57.8258824 88.9628959 0 68.3902262 0 55.60181 22.240724 42.5353846 0"></polygon>
        </g>
    </g>
</svg>